<?xml version="1.0" encoding="UTF-8"?> <svg xmlns="http://www.w3.org/2000/svg" xmlns:xlink="http://www.w3.org/1999/xlink" width="130px" height="93px" viewBox="0 0 130 93"> <!-- Generator: Sketch 50.2 (55047) - http://www.bohemiancoding.com/sketch --> <title>onesoilblog</title> <desc>Created with Sketch.</desc> <defs></defs> <g id="Page-1" stroke="none" stroke-width="1" fill="none" fill-rule="evenodd"> <g id="Group-5" transform="translate(0.000000, 10.000000)"> <path d="M11.2317178,43.1424028 C8.04354792,43.1424028 5.35261552,42.1037253 3.21741917,39.9975182 C1.08222281,37.891311 0,35.2946173 0,32.207437 C0,29.1202566 1.08222281,26.4947107 3.24666843,24.3307993 C5.44036332,22.1668878 8.10204645,21.0993582 11.2609671,21.0993582 C14.4198877,21.0993582 17.0815708,22.1668878 19.2460165,24.3307993 C21.4397114,26.4947107 22.5219342,29.0914045 22.5219342,32.1497327 C22.5219342,35.2080608 21.4397114,37.8047546 19.2460165,39.9398139 C17.0815708,42.0748732 14.4198877,43.1424028 11.2317178,43.1424028 Z M18.0175473,32.1497327 C18.0175473,30.1877863 17.3740635,28.5720657 16.0578466,27.2737188 C14.7416296,25.975372 13.1621693,25.3117725 11.2609671,25.3117725 C9.35976485,25.3117725 7.78030453,25.975372 6.4640876,27.2737188 C5.14787067,28.5720657 4.50438683,30.2166384 4.50438683,32.1497327 C4.50438683,34.0828269 5.14787067,35.6985474 6.43483833,36.9968943 C7.75105526,38.2952412 9.35976485,38.9299885 11.2609671,38.9299885 C13.1621693,38.9299885 14.7708789,38.2952412 16.0870958,36.9968943 C17.4033128,35.6985474 18.0467966,34.0828269 18.0175473,32.1497327 Z M28.229197,42.796177 L28.229197,34.3713484 C28.229197,32.034324 29.6916603,30.3897513 31.8853552,30.3897513 C33.9035545,30.3897513 35.2490207,31.7746547 35.2490207,34.284792 L35.2490207,42.796177 L39.373167,42.796177 L39.373167,33.1884102 C39.373167,31.082203 38.7589325,29.4664824 37.5597126,28.3412485 C36.3604927,27.2160145 34.8687802,26.6389715 33.1430736,26.6389715 C30.8908802,26.6389715 28.9896779,27.7353533 28.1414492,29.2645174 L28.1414492,27.0717538 L24.1050506,27.0717538 L24.1050506,42.796177 L28.229197,42.796177 Z M57.0141301,34.5733135 C57.0141301,35.1215044 56.9556316,35.7273996 56.8678838,36.362147 L44.9049343,36.362147 C45.4899196,38.5837627 47.0401307,39.7089967 49.5555675,39.7089967 C51.2812741,39.7089967 53.3287227,39.0453972 54.7034381,38.1221283 L56.341397,40.9784914 C54.3231977,42.421099 52.0125057,43.1424028 49.3800719,43.1424028 C46.5721424,43.1424028 44.4369461,42.3345426 42.9452336,40.7476742 C41.453521,39.1608058 40.7222894,37.1988594 40.7222894,34.9195393 C40.7222894,32.5248106 41.4827703,30.5628643 43.0329813,29.004848 C44.5831924,27.4468318 46.5721424,26.6678236 49.0290807,26.6678236 C51.3397727,26.6678236 53.2702242,27.3891275 54.7619367,28.8028829 C56.2536492,30.2166384 57.0141301,32.1208805 57.0141301,34.5733135 Z M49.0290807,30.0435255 C46.9523829,30.0435255 45.4021718,31.2841681 44.9049343,33.3326709 L53.0069808,33.3326709 C52.6267403,31.2841681 51.1350278,30.0435255 49.0290807,30.0435255 Z M65.0613342,43.1424028 C61.6976687,43.1424028 58.6557451,41.7286474 56.8715399,39.1608058 L59.3577275,36.189034 C60.7616922,38.1221283 62.8676393,39.1608058 65.0905834,39.1608058 C66.8747886,39.1608058 68.1910055,38.2375369 68.1910055,36.8814857 C68.1910055,36.0159211 67.5475217,35.2657651 66.2313048,34.6598699 C65.9388121,34.5156092 65.2368298,34.2559398 64.0961084,33.8231575 C62.9846363,33.3903752 62.1364076,32.9864451 61.5514223,32.6690714 C59.2699797,31.3707245 58.1292583,29.6107432 58.1292583,27.3602753 C58.1292583,25.5714418 58.8019914,24.099982 60.1767069,22.9170438 C61.5514223,21.7341055 63.3356275,21.1282103 65.5000731,21.1282103 C68.3080026,21.1282103 70.6771931,22.0803313 72.6076446,24.0134256 L70.2969526,27.1294581 C69.0977328,25.8599634 67.1672813,25.1386595 65.5585717,25.1386595 C63.832865,25.1386595 62.7798915,25.9465198 62.7798915,27.1871624 C62.7798915,28.0238748 63.3648768,28.7163265 64.5348474,29.2933695 L66.6700437,30.2166384 C67.8692636,30.707125 68.7467416,31.082203 69.3024776,31.3418724 C71.7594159,32.5248106 72.987885,34.284792 72.987885,36.6506685 C72.987885,38.5549106 72.2566534,40.1129268 70.7941901,41.3247172 C69.3317269,42.5365076 67.4305246,43.1424028 65.0613342,43.1424028 Z M73.6935235,34.9195393 C73.6935235,32.6113671 74.4832537,30.6494207 76.0919633,29.0625523 C77.7006729,27.4468318 79.7481214,26.6389715 82.234309,26.6389715 C84.7204965,26.6389715 86.7679451,27.4468318 88.3766546,29.0625523 C89.9853642,30.6494207 90.7750944,32.6113671 90.7750944,34.9195393 C90.7750944,37.2565637 89.9853642,39.2185101 88.3766546,40.8053785 C86.7679451,42.3922469 84.7204965,43.2001072 82.234309,43.2001072 C79.7481214,43.2001072 77.7006729,42.3922469 76.0919633,40.8053785 C74.4832537,39.2185101 73.6935235,37.2565637 73.6935235,34.9195393 Z M79.0753883,38.1221283 C79.923617,38.9876929 80.9765906,39.4204751 82.234309,39.4204751 C83.4920274,39.4204751 84.5157516,38.9876929 85.3639803,38.1221283 C86.212209,37.2277115 86.650948,36.1601819 86.650948,34.9195393 C86.650948,33.6788967 86.212209,32.6113671 85.3639803,31.7458025 C84.5157516,30.8802379 83.4920274,30.4474556 82.234309,30.4474556 C80.9765906,30.4474556 79.923617,30.8802379 79.0753883,31.7458025 C78.2271596,32.6113671 77.8176699,33.6788967 77.8176699,34.9195393 C77.8176699,36.1601819 78.2271596,37.2277115 79.0753883,38.1221283 Z M96.2483631,24.5904686 C97.2135889,23.6383476 97.2135889,21.9649227 96.2483631,21.0416538 C95.2831374,20.0895328 93.58668,20.0895328 92.6214542,21.0416538 C91.6562285,21.9649227 91.6562285,23.6383476 92.6214542,24.5904686 C93.58668,25.5425897 95.2831374,25.5425897 96.2483631,24.5904686 Z M96.4823572,27.0717538 L92.3582109,27.0717538 L92.3582109,42.796177 L96.4823572,42.796177 L96.4823572,27.0717538 Z M102.920852,20.8685409 L102.920852,42.796177 L98.7967054,42.796177 L98.7967054,20.8685409 L102.920852,20.8685409 Z M110.488938,1.38414434 L111.43379,0.20010715 C112.599881,0.763960077 118.758274,2.00062398 122.500436,3.609482 C124.367705,4.41391197 126.257839,5.51154377 127.683061,7.21813765 C129.108284,8.92473154 130,11.2478031 130,14.0144391 C130,16.9915801 128.666236,19.1116662 127.317229,20.3295865 C126.669401,20.915994 126.013951,21.3219668 125.488067,21.592616 C126.082546,24.4344333 126.097788,27.2010693 126.097788,29.4715142 L122.195575,29.4715142 C122.195575,24.1938563 122.500436,18.6756194 116.525173,14.0144391 L118.903084,10.9470818 C121.56299,13.0220588 123.270207,15.3526499 124.329598,17.7433833 C124.443921,17.6531669 124.512514,17.6155772 124.634458,17.5028063 C125.358502,16.8412194 126.097788,15.9165009 126.097788,14.0144391 C126.097788,12.022161 125.518553,10.7440945 124.634458,9.68405235 C123.750363,8.62401023 122.500436,7.75191845 120.976134,7.09784913 C118.392442,5.9851803 115.580106,5.48899111 113.171709,4.63193443 C112.424802,5.81978455 110.488938,9.21041581 110.488938,14.8564588 C110.488938,18.5252587 111.502598,20.096527 112.379072,20.8708849 C113.255546,21.6452427 114.292071,21.7730488 114.696011,21.7730488 C115.389569,21.7730488 116.784305,21.0513177 118.537251,20.3295865 L120.000581,23.8780979 C118.651574,24.4344333 117.028193,25.6222815 114.696011,25.6222815 C113.629,25.6222815 111.578814,25.3140426 109.757273,23.6976651 C107.935732,22.0812877 106.586726,19.2545074 106.586726,14.8564588 C106.586726,9.52366766 107.887463,5.03289617 110.488938,1.38414434 Z" id="Logo" fill="#20BF55"></path> <path d="M36.0957466,77.0774639 L45.3357466,52.2694639 L47.8277466,53.1934639 L38.5877466,78.0014639 L36.0957466,77.0774639 Z M49.7037466,72.1494639 L49.7037466,52.6334639 C50.7957466,52.5774639 53.3997466,52.4934639 55.3597466,52.4934639 C60.0357466,52.4934639 61.7997466,54.6214639 61.7997466,57.3374639 C61.7997466,59.5774639 60.6797466,61.0054639 58.9997466,61.7894639 L58.9997466,61.8454639 C60.9317466,62.3214639 62.4437466,63.8054639 62.4437466,66.4094639 C62.4437466,70.4414639 59.3077466,72.2894639 55.1637466,72.2894639 C53.3717466,72.2894639 50.8517466,72.2334639 49.7037466,72.1494639 Z M55.5837466,63.7494639 L53.1477466,63.7494639 L53.1477466,68.9294639 C53.6237466,68.9854639 54.4357466,69.0694639 55.4157466,69.0694639 C57.7397466,69.0694639 58.9997466,68.0894639 58.9997466,66.2414639 C58.9997466,64.5894639 57.7397466,63.7494639 55.5837466,63.7494639 Z M55.3037466,55.7134639 C54.5197466,55.7134639 53.7637466,55.7414639 53.1477466,55.7974639 L53.1477466,60.7534639 L55.4717466,60.7534639 C57.0677466,60.7534639 58.3837466,59.9414639 58.3837466,58.1494639 C58.3837466,56.5534639 57.1517466,55.7134639 55.3037466,55.7134639 Z M66.0557466,68.7054639 L66.0557466,52.5774639 L69.2757466,52.5774639 L69.2757466,67.3894639 C69.2757466,68.8174639 69.6117466,69.4334639 70.3677466,69.4334639 C70.8717466,69.4334639 71.2917466,69.2094639 71.6837466,68.9294639 L72.3557466,71.3934639 C71.6277466,71.9814639 70.5357466,72.4574639 69.0237466,72.4574639 C67.0917466,72.4574639 66.0557466,71.2814639 66.0557466,68.7054639 Z M73.6437466,65.8774639 C73.6437466,62.0974639 76.3317466,59.2694639 80.5037466,59.2694639 C84.6757466,59.2694639 87.3637466,62.0974639 87.3637466,65.8774639 C87.3637466,69.6574639 84.6757466,72.4854639 80.5037466,72.4854639 C76.3317466,72.4854639 73.6437466,69.6574639 73.6437466,65.8774639 Z M77.0877466,65.8774639 C77.0877466,67.9774639 78.5437466,69.4894639 80.5037466,69.4894639 C82.4917466,69.4894639 83.9477466,68.0614639 83.9477466,65.8774639 C83.9477466,63.7494639 82.4637466,62.2934639 80.5037466,62.2934639 C78.5997466,62.2934639 77.0877466,63.6934639 77.0877466,65.8774639 Z M88.5117466,73.8854639 C88.5117466,71.7854639 90.1917466,70.4974639 92.5997466,69.9934639 C92.4597466,69.7414639 92.3757466,69.4054639 92.3757466,69.1254639 C92.3757466,68.8174639 92.4597466,68.4814639 92.6557466,68.2294639 C90.7517466,67.4734639 89.6597466,65.8494639 89.6597466,64.0014639 C89.6597466,61.4814639 91.7037466,59.2694639 95.0357466,59.2694639 C96.2957466,59.2694639 97.3877466,59.6054639 98.2557466,60.1654639 L102.063747,59.3254639 L102.175747,61.9014639 L100.075747,62.3774639 C100.271747,62.8814639 100.383747,63.4414639 100.383747,64.0014639 C100.383747,66.5214639 98.2837466,68.6494639 95.0357466,68.6494639 L94.8117466,68.6494639 C94.7557466,68.8174639 94.7557466,68.9854639 94.7557466,69.1254639 C94.7557466,69.3494639 94.8117466,69.5734639 94.9237466,69.7694639 L95.0637466,69.7694639 C98.7317466,69.7694639 101.615747,71.0574639 101.615747,73.8854639 C101.615747,76.7134639 98.7317466,78.0014639 95.0637466,78.0014639 C91.3957466,78.0014639 88.5117466,76.7694639 88.5117466,73.8854639 Z M91.5077466,73.8854639 C91.5077466,74.8654639 92.8797466,75.4254639 95.0637466,75.4254639 C97.2477466,75.4254639 98.5917466,74.8934639 98.5917466,73.8854639 C98.5917466,72.9614639 97.3877466,72.3454639 95.0637466,72.3454639 C92.7677466,72.3454639 91.5077466,72.9614639 91.5077466,73.8854639 Z M92.6837466,64.0014639 C92.6837466,65.1774639 93.5797466,66.0454639 95.0357466,66.0454639 C96.4077466,66.0454639 97.3877466,65.2614639 97.3877466,64.0014639 C97.3877466,62.8254639 96.5477466,61.8734639 95.0357466,61.8734639 C93.5797466,61.8734639 92.6837466,62.8534639 92.6837466,64.0014639 Z" id="/Blog" fill="#4A4A4A"></path> </g> </g> </svg> 