<?xml version="1.0" encoding="UTF-8"?> <svg xmlns="http://www.w3.org/2000/svg" width="128" height="127" viewBox="0 0 128 127" fill="none"> <path d="M100.867 19.65L54.8686 7.27451C39.9356 3.25691 24.5732 12.1056 20.5556 27.0385L8.18005 73.0369C4.16245 87.9699 13.0111 103.332 27.9441 107.35L73.9425 119.725C88.8754 123.743 104.238 114.894 108.256 99.9615L120.631 53.9631C124.649 39.0301 115.8 23.6676 100.867 19.65Z" fill="#1DA1F2"></path> <path d="M54.5698 85.7642C74.833 85.7642 85.9161 68.7282 85.9161 53.9546C85.9161 53.4707 85.9161 52.989 85.8839 52.5095C88.04 50.9269 89.9012 48.9674 91.3803 46.7226C89.3697 47.6267 87.2367 48.2196 85.0527 48.4816C87.3525 47.0844 89.0738 44.8868 89.8961 42.2979C87.7336 43.6002 85.3676 44.5179 82.9005 45.0116C81.2394 43.2192 79.0426 42.0324 76.6498 41.6347C74.2571 41.237 71.8019 41.6507 69.6642 42.8116C67.5265 43.9726 65.8254 45.8162 64.8242 48.0571C63.8231 50.2979 63.5776 52.8112 64.1258 55.2079C59.7457 54.9851 55.4607 53.83 51.5491 51.8177C47.6375 49.8054 44.1866 46.9808 41.4204 43.5273C40.0116 45.9884 39.5801 48.9019 40.2138 51.6746C40.8475 54.4473 42.4987 56.8706 44.8313 58.4512C43.078 58.3985 41.363 57.9185 39.831 57.0519C39.831 57.0977 39.831 57.1456 39.831 57.1936C39.8317 59.7747 40.7122 62.2762 42.3232 64.2737C43.9341 66.2711 46.1764 67.6417 48.6696 68.1528C47.0476 68.6016 45.3459 68.6673 43.695 68.3446C44.399 70.566 45.7696 72.5086 47.6151 73.9006C49.4606 75.2927 51.6887 76.0646 53.9877 76.1084C50.0866 79.2197 45.2674 80.9087 40.3057 80.9036C39.4291 80.9019 38.5534 80.8481 37.6831 80.7423C42.7213 84.0233 48.5835 85.7636 54.5698 85.7555" fill="white"></path> </svg> 